<?xml version="1.0" standalone="no"?>
<!DOCTYPE svg PUBLIC "-//W3C//DTD SVG 20010904//EN"
 "http://www.w3.org/TR/2001/REC-SVG-20010904/DTD/svg10.dtd">
<svg version="1.0" xmlns="http://www.w3.org/2000/svg"
 width="304.000000pt" height="157.000000pt" viewBox="0 0 304.000000 157.000000"
 preserveAspectRatio="xMidYMid meet">

<g transform="translate(0.000000,157.000000) scale(0.100000,-0.100000)"
fill="#000000" stroke="none">
<path d="M1412 1434 c-56 -28 -90 -71 -99 -127 l-5 -34 93 -50 94 -49 90 48
c87 46 90 49 89 82 -2 52 -38 101 -96 130 -29 14 -66 26 -83 26 -17 0 -54 -12
-83 -26z"/>
<path d="M1100 1238 c0 -46 3 -55 23 -63 33 -15 34 -58 3 -83 -21 -16 -26 -29
-26 -63 l0 -44 99 -38 c82 -31 155 -70 276 -146 18 -11 30 -6 107 42 80 50
226 119 284 133 21 5 24 12 24 51 0 36 -5 49 -26 65 -31 25 -30 68 4 83 19 8
22 17 22 63 0 51 -1 53 -22 47 -58 -17 -240 -99 -302 -135 -37 -22 -69 -40
-71 -40 -2 0 -34 18 -71 40 -62 36 -244 118 -301 135 -22 6 -23 4 -23 -47z"/>
<path d="M2762 653 c-19 -4 -23 -9 -18 -26 3 -12 6 -100 6 -195 l0 -173 33 3
32 3 5 74 5 73 43 -76 c42 -74 44 -76 83 -76 21 0 39 2 39 4 0 3 -23 39 -51
81 l-50 76 40 54 c23 30 41 57 41 60 0 3 -18 5 -39 5 -38 0 -41 -2 -75 -62
l-36 -63 0 85 c0 103 -9 160 -24 159 -6 -1 -22 -4 -34 -6z"/>
<path d="M55 628 c-2 -7 -9 -83 -15 -168 -6 -85 -13 -165 -16 -177 -4 -21 -1
-23 36 -23 l40 0 1 63 c1 34 4 89 8 122 l6 60 24 -90 c46 -172 39 -157 74
-153 32 3 32 4 67 122 35 118 35 118 42 75 3 -24 7 -72 7 -106 1 -83 6 -93 47
-93 l35 0 -6 48 c-3 26 -10 108 -16 182 -6 74 -13 138 -16 143 -2 4 -24 7 -48
7 l-43 0 -33 -121 -33 -120 -18 68 c-10 37 -25 92 -34 121 l-15 52 -45 0 c-27
0 -46 -5 -49 -12z"/>
<path d="M780 451 l0 -191 90 0 c100 0 135 11 156 51 23 45 18 87 -16 120 -29
29 -29 30 -10 49 26 26 33 60 21 92 -17 46 -54 62 -152 66 l-89 4 0 -191z
m164 97 c18 -29 -4 -53 -53 -56 l-41 -3 0 41 0 41 41 -3 c27 -2 46 -9 53 -20z
m-4 -138 c24 -24 25 -38 4 -68 -11 -16 -25 -22 -55 -22 l-39 0 0 48 c0 27 3
52 7 55 14 14 64 6 83 -13z"/>
<path d="M1860 635 c0 -3 -1 -87 -1 -187 l0 -183 96 -3 96 -3 35 35 c26 26 34
43 34 69 0 38 -32 87 -58 87 -12 0 -9 7 11 28 51 53 30 132 -41 152 -37 10
-172 14 -172 5z m160 -85 c18 -34 -4 -60 -50 -60 -40 0 -40 0 -40 40 0 40 0
40 40 40 29 0 42 -5 50 -20z m-6 -133 c21 -16 24 -60 6 -82 -7 -9 -29 -15 -51
-15 l-39 0 0 48 c0 27 3 52 7 55 11 12 58 8 77 -6z"/>
<path d="M1665 613 c-24 -6 -35 -21 -35 -49 0 -12 -7 -24 -15 -28 -19 -7 -20
-46 -1 -46 11 0 15 -22 18 -100 4 -118 14 -135 83 -135 24 0 46 3 50 7 12 12
-5 47 -21 41 -32 -12 -44 16 -44 103 l0 83 28 3 c19 2 28 9 30 26 3 19 -1 22
-28 22 -30 0 -31 2 -28 37 3 38 -3 44 -37 36z"/>
<path d="M443 534 c-13 -6 73 -274 88 -274 20 0 -22 -60 -46 -66 -14 -3 -25
-9 -25 -13 1 -14 28 -41 42 -41 26 0 69 42 88 85 17 40 110 302 110 311 0 2
-15 4 -34 4 -34 0 -35 -1 -59 -77 -14 -43 -28 -91 -32 -108 -6 -26 -11 -18
-39 75 -28 95 -34 105 -56 107 -14 1 -30 0 -37 -3z"/>
<path d="M1125 507 c-52 -52 -59 -133 -15 -204 32 -53 132 -69 186 -28 15 11
17 17 7 32 -6 10 -17 16 -25 14 -7 -2 -31 -6 -52 -9 -42 -5 -66 13 -66 50 0
16 9 18 80 18 90 0 92 2 70 82 -15 51 -52 78 -107 78 -38 0 -51 -6 -78 -33z
m114 -39 c12 -32 6 -38 -40 -38 -31 0 -39 4 -39 18 0 44 64 59 79 20z"/>
<path d="M1394 516 c-21 -17 -28 -33 -28 -59 0 -47 17 -64 80 -83 46 -13 54
-19 54 -39 0 -32 -27 -39 -80 -20 -24 8 -44 14 -45 13 -1 -2 -8 -13 -14 -26
-11 -20 -9 -23 16 -33 80 -31 163 -18 188 31 33 64 13 102 -66 128 -42 13 -54
22 -54 37 0 15 8 21 32 23 18 2 41 -1 51 -7 16 -8 21 -6 30 15 11 22 9 26 -14
34 -49 19 -120 12 -150 -14z"/>
<path d="M2219 525 c-57 -31 -78 -148 -39 -213 25 -40 81 -66 125 -58 102 19
138 175 60 253 -27 27 -40 33 -76 33 -24 -1 -56 -7 -70 -15z m90 -44 c18 -12
26 -107 12 -143 -7 -20 -18 -28 -34 -28 -37 0 -47 19 -47 90 0 82 24 110 69
81z"/>
<path d="M2513 530 c-47 -19 -79 -106 -63 -174 5 -22 22 -53 40 -70 26 -27 37
-31 81 -30 42 0 55 5 82 32 28 28 32 39 35 99 5 104 -35 154 -121 152 -18 0
-42 -4 -54 -9z m85 -52 c18 -22 24 -83 12 -127 -10 -39 -13 -42 -42 -39 -27 3
-33 8 -41 38 -11 41 -4 105 13 125 15 18 44 19 58 3z"/>
</g>
</svg>
